HIERARCHY
ROOT Hips
{
 OFFSET 0.000000 0.000000 0.000000
 CHANNELS 6 Xposition Yposition Zposition Yrotation Xrotation Zrotation
 JOINT Chest
 {
  OFFSET 0.000000 9.581000 -0.001100
  CHANNELS 3 Yrotation Xrotation Zrotation
  JOINT Chest2
  {
   OFFSET 0.000000 9.561100 0.002200
   CHANNELS 3 Yrotation Xrotation Zrotation
   JOINT Chest3
   {
    OFFSET 0.000000 9.521100 0.000000
    CHANNELS 3 Yrotation Xrotation Zrotation
    JOINT Chest4
    {
     OFFSET 0.000000 9.511400 0.000000
     CHANNELS 3 Yrotation Xrotation Zrotation
     JOINT Neck
     {
      OFFSET 0.000000 14.375100 0.000000
      CHANNELS 3 Yrotation Xrotation Zrotation
      JOINT Head
      {
       OFFSET 0.000000 8.901200 0.004600
       CHANNELS 3 Yrotation Xrotation Zrotation
       End Site
       {
        OFFSET 0.000000 16.962200 0.002400
       }
      }
     }
     JOINT RightCollar
     {
      OFFSET -2.920100 9.518800 0.000000
      CHANNELS 3 Yrotation Xrotation Zrotation
      JOINT RightShoulder
      {
       OFFSET -13.664500 0.000000 0.000000
       CHANNELS 3 Yrotation Xrotation Zrotation
       JOINT RightElbow
       {
        OFFSET 0.000000 -29.999200 0.000000
        CHANNELS 3 Yrotation Xrotation Zrotation
        JOINT RightWrist
        {
         OFFSET 0.000000 -24.253600 0.000000
         CHANNELS 3 Yrotation Xrotation Zrotation
         End Site
         {
          OFFSET 0.000000 -17.918900 0.000000
         }
        }
       }
      }
     }
     JOINT LeftCollar
     {
      OFFSET 2.920100 9.518800 0.000000
      CHANNELS 3 Yrotation Xrotation Zrotation
      JOINT LeftShoulder
      {
       OFFSET 13.664500 0.000000 0.000000
       CHANNELS 3 Yrotation Xrotation Zrotation
       JOINT LeftElbow
       {
        OFFSET 0.000000 -29.999200 0.000000
        CHANNELS 3 Yrotation Xrotation Zrotation
        JOINT LeftWrist
        {
         OFFSET 0.000000 -24.253600 0.000000
         CHANNELS 3 Yrotation Xrotation Zrotation
         End Site
         {
          OFFSET 0.000000 -17.918900 0.000000
         }
        }
       }
      }
     }
    }
   }
  }
 }
 JOINT RightHip
 {
  OFFSET -7.797300 0.005300 0.000500
  CHANNELS 3 Yrotation Xrotation Zrotation
  JOINT RightKnee
  {
   OFFSET 0.000000 -40.663400 -0.000500
   CHANNELS 3 Yrotation Xrotation Zrotation
   JOINT RightAnkle
   {
    OFFSET 0.000000 -39.523700 -0.000900
    CHANNELS 3 Yrotation Xrotation Zrotation
    JOINT RightToe
    {
     OFFSET 0.000000 -6.418000 14.485300
     CHANNELS 3 Yrotation Xrotation Zrotation
     End Site
     {
      OFFSET 0.000000 -1.465200 6.326400
     }
    }
   }
  }
 }
 JOINT LeftHip
 {
  OFFSET 7.797300 0.005300 0.000500
  CHANNELS 3 Yrotation Xrotation Zrotation
  JOINT LeftKnee
  {
   OFFSET 0.000000 -40.663400 -0.000500
   CHANNELS 3 Yrotation Xrotation Zrotation
   JOINT LeftAnkle
   {
    OFFSET 0.000000 -39.523700 -0.000900
    CHANNELS 3 Yrotation Xrotation Zrotation
    JOINT LeftToe
    {
     OFFSET 0.000000 -6.418000 14.485300
     CHANNELS 3 Yrotation Xrotation Zrotation
     End Site
     {
      OFFSET 0.000000 -1.465200 6.326400
     }
    }
   }
  }
 }
}
MOTION
Frames: 7
Frame Time: 0.008333
0.000000 86.422400 0.000000 0.000000 -5.767877 0.000000 0.000000 11.653817 0.000000 0.000000 -5.885947 0.000000 0.000000 -0.000000 0.000000 0.000000 -0.000000 0.000000 0.000000 12.528835 0.000000 0.000000 0.711642 0.000000 0.000000 -0.000000 0.000000 0.000000 0.000000 -90.000000 0.000000 -2.309062 0.000000 0.000000 2.309062 0.000000 0.000000 -0.000000 0.000000 0.000000 -0.000000 90.000000 0.000000 -2.309062 0.000000 0.000000 2.309062 0.000000 0.000000 8.520406 0.000000 0.000000 1.905762 0.000000 -0.000000 -4.658285 0.000000 0.000000 -0.000000 0.000000 0.000000 8.520406 0.000000 0.000000 1.905762 0.000000 -0.000000 -4.658285 0.000000 0.000000 -0.000000 0.000000
-15.210408 126.890825 15.844192 175.650313 -48.451044 -5.512762 2.624862 26.618231 4.557811 0.287915 4.587561 0.676458 0.482458 7.267680 1.085161 1.939774 21.753988 3.568877 4.018768 10.291363 -5.154577 5.675125 -14.789743 -6.674288 0.915588 3.145691 2.301717 1.978344 -11.796456 -11.209641 -99.323794 -63.901855 146.846707 3.529054 2.684424 -4.009636 -11.188101 0.200949 -0.903095 -5.456503 -12.277079 10.988730 69.007185 -61.980286 -111.227879 -5.280751 -10.401961 -1.068923 -17.422504 -9.511407 3.963353 6.463038 76.202235 21.762496 24.051323 -19.700999 16.688279 0.004047 -0.001148 0.001793 10.389670 -16.606574 -4.318543 7.804916 66.804561 -4.719785 4.983373 -5.174087 15.440976 0.000183 0.000399 0.000081
-15.210382 126.890501 15.844419 175.636962 -48.446030 -5.501498 2.630243 26.613934 4.562370 0.287471 4.587727 0.677367 0.481206 7.269717 1.092963 1.936617 21.752065 3.566213 4.442571 10.304845 -5.372431 6.215714 -14.768809 -7.049826 0.915669 3.040920 2.373613 1.957701 -11.709250 -11.278084 -98.806066 -63.821335 146.440214 3.155330 2.419095 -4.545133 -11.220585 0.194509 -0.893288 -5.417674 -12.274136 10.994331 68.729786 -61.879999 -110.960246 -5.031256 -10.642490 -1.124192 -17.424499 -9.514850 3.962380 6.466323 76.202282 21.764291 24.036356 -19.717105 16.685910 0.002692 -0.005967 0.001193 10.394542 -16.612452 -4.324435 7.804696 66.800122 -4.716714 4.985618 -5.170573 15.439689 0.000608 0.000248 0.000269
-15.209322 126.890660 15.844320 175.626686 -48.443068 -5.498242 2.631993 26.620105 4.585749 0.288068 4.590251 0.681477 0.481872 7.260065 1.072707 1.952332 21.767088 3.614370 4.865247 10.317532 -5.641299 6.783386 -14.736994 -7.458975 0.910660 2.939517 2.408272 1.924218 -11.643078 -11.342079 -98.132577 -63.701277 145.922308 2.640555 2.044275 -5.196506 -11.284369 0.161167 -0.921342 -5.351266 -12.262372 11.006945 68.455592 -61.739578 -110.694828 -4.733866 -10.897425 -1.238051 -17.433997 -9.510749 3.962553 6.456544 76.191586 21.757992 24.037557 -19.714057 16.677265 0.002410 -0.008233 0.001068 10.395062 -16.617540 -4.322211 7.809260 66.798319 -4.713117 4.988060 -5.170038 15.439174 0.000452 0.000160 0.000200
-15.208626 126.890985 15.843859 175.620329 -48.440178 -5.494952 2.635589 26.620406 4.593882 0.288640 4.596448 0.693299 0.480014 7.261404 1.072651 1.950625 21.763691 3.611265 5.324776 10.346910 -5.894110 7.380665 -14.694150 -7.904152 0.918303 2.858643 2.476623 1.884998 -11.588535 -11.403266 -97.247062 -63.537795 145.243692 1.943330 1.512130 -5.963993 -11.357075 0.140652 -0.925393 -5.250044 -12.244813 11.021494 68.170314 -61.554187 -110.419640 -4.390599 -11.192567 -1.421996 -17.451531 -9.504038 3.963361 6.487738 76.178642 21.774774 24.039483 -19.715063 16.675550 0.001792 -0.005388 0.000794 10.391084 -16.620964 -4.322241 7.818237 66.795503 -4.709129 4.989638 -5.170345 15.439244 0.000016 0.000172 0.000007
-15.207969 126.890700 15.843785 175.610433 -48.431457 -5.487979 2.640725 26.615830 4.601499 0.290682 4.601944 0.708544 0.480887 7.270029 1.086963 1.938289 21.752961 3.590805 5.804425 10.379984 -6.167895 8.010828 -14.640902 -8.386243 0.928588 2.778938 2.556301 1.849420 -11.530548 -11.480781 -96.166888 -63.323880 144.392695 1.054477 0.775103 -6.817865 -11.447931 0.120919 -0.931480 -5.106128 -12.226624 11.034458 67.882949 -61.330949 -110.138461 -3.989371 -11.542690 -1.707118 -17.453307 -9.510839 3.964439 6.495290 76.172881 21.781194 24.053113 -19.705298 16.673784 0.005609 -0.001756 0.002485 10.385848 -16.628888 -4.325034 7.804088 66.789445 -4.729235 5.003741 -5.173508 15.442673 -0.000729 0.000730 -0.000323
-15.207348 126.890520 15.843466 175.606945 -48.422267 -5.484104 2.642149 26.615289 4.620180 0.291412 4.602947 0.715386 0.477994 7.266188 1.073510 1.968054 21.766591 3.671617 6.266386 10.405897 -6.525598 8.677892 -14.579443 -8.906780 0.900550 2.724451 2.525732 1.835943 -11.500671 -11.525165 -95.000974 -63.039747 143.439140 -0.000865 -0.162687 -7.719573 -11.527482 0.080228 -1.001783 -4.966739 -12.210844 11.051590 67.619248 -61.070810 -109.869768 -3.509511 -11.935105 -2.112882 -17.466517 -9.514918 3.964407 6.503352 76.165088 21.781533 24.064100 -19.699407 16.672700 0.007803 0.001207 0.003457 10.375578 -16.640302 -4.328634 7.811253 66.789443 -4.728632 5.007689 -5.172221 15.439459 -0.000268 0.000792 -0.000119
